<?xml version="1.0" standalone="no"?>
<!DOCTYPE svg PUBLIC "-//W3C//DTD SVG 20010904//EN"
 "http://www.w3.org/TR/2001/REC-SVG-20010904/DTD/svg10.dtd">
<svg version="1.0" xmlns="http://www.w3.org/2000/svg"
 width="491.000000pt" height="491.000000pt" viewBox="0 0 491.000000 491.000000"
 preserveAspectRatio="xMidYMid meet">
<metadata>
Created by potrace 1.14, written by Peter Selinger 2001-2017
</metadata>
<g transform="translate(0.000000,491.000000) scale(0.100000,-0.100000)"
fill="#000000" stroke="none">
<path d="M1663 4438 c-132 -89 -226 -208 -366 -463 -62 -114 -137 -307 -137
-353 0 -11 -4 -23 -8 -26 -10 -6 -15 -78 -14 -208 0 -94 20 -190 43 -203 14
-9 11 -42 -5 -58 -18 -18 -52 -101 -62 -152 -4 -22 -8 -70 -8 -107 -1 -66 -1
-66 -27 -61 -21 4 -31 -2 -54 -33 -25 -33 -30 -47 -29 -99 0 -36 9 -83 22
-118 34 -91 64 -129 126 -163 l28 -16 -30 -18 c-17 -11 -43 -38 -58 -60 -26
-39 -27 -43 -15 -95 10 -44 20 -60 49 -83 20 -15 56 -34 79 -42 56 -17 259
-18 312 0 40 13 43 12 69 -13 15 -14 59 -39 97 -55 39 -16 84 -37 100 -46 17
-9 35 -16 42 -16 25 0 22 -21 -9 -82 -54 -105 -74 -172 -81 -282 -2 -38 -4
-40 -47 -51 -68 -18 -103 -39 -152 -94 -58 -65 -98 -172 -98 -265 0 -143 64
-289 178 -406 65 -66 73 -78 72 -110 -3 -67 0 -79 31 -101 29 -20 40 -21 237
-20 l207 1 49 30 c27 17 50 29 51 28 1 -2 8 -13 14 -26 31 -60 258 -89 336
-44 29 18 52 20 206 20 96 0 182 0 191 1 27 2 77 53 79 81 2 14 0 34 -4 46 -6
17 6 35 61 92 42 44 86 103 112 153 l44 81 121 57 c66 31 137 72 158 90 20 18
58 71 82 116 40 72 46 91 47 147 1 69 -4 101 -33 197 -35 117 -21 176 58 234
60 44 170 100 241 123 32 10 72 34 102 61 44 39 50 50 50 83 0 81 -40 134
-150 199 -86 52 -134 64 -260 65 l-105 1 -6 75 c-3 42 -9 85 -13 96 -4 14 2
34 20 60 15 21 34 55 42 74 20 48 23 167 4 200 -13 23 -12 28 22 79 35 52 92
165 154 306 53 119 109 361 89 381 -20 20 -346 45 -589 46 l-178 0 16 29 c22
44 10 109 -30 155 -28 33 -36 37 -79 36 -25 -1 -60 -8 -77 -17 -32 -16 -36
-11 -21 28 7 19 4 36 -14 75 -27 58 -50 74 -110 74 -47 0 -109 -35 -160 -90
l-26 -27 2 35 c5 89 -23 99 -129 46 -37 -18 -107 -50 -157 -71 -49 -21 -99
-44 -110 -52 -34 -23 -54 -15 -83 33 -15 26 -42 65 -60 87 -18 22 -60 79 -93
126 -74 106 -131 182 -188 252 -60 74 -89 79 -168 27z m1591 -2419 c18 -15 26
-35 31 -77 10 -82 22 -129 77 -295 71 -215 71 -285 -1 -336 -37 -26 -51 -27
-51 -1 0 39 -30 91 -86 150 -64 67 -139 100 -229 100 -45 0 -55 4 -82 33 -17
17 -37 43 -44 57 -21 39 -79 184 -79 197 0 6 19 14 43 18 50 8 173 40 208 54
13 5 58 34 99 65 41 31 78 56 82 56 5 0 19 -9 32 -21z"/>
</g>
</svg>
