<?xml version="1.0" encoding="UTF-8" standalone="no"?>
<!DOCTYPE svg PUBLIC "-//W3C//DTD SVG 1.1//EN" "http://www.w3.org/Graphics/SVG/1.1/DTD/svg11.dtd">
<svg width="100%" height="100%" viewBox="0 0 1080 1080" version="1.1" xmlns="http://www.w3.org/2000/svg" xmlns:xlink="http://www.w3.org/1999/xlink" xml:space="preserve" xmlns:serif="http://www.serif.com/" style="fill-rule:evenodd;clip-rule:evenodd;stroke-linecap:round;stroke-linejoin:round;stroke-miterlimit:2;">
    <circle cx="540" cy="540" r="540" style="fill:rgb(255,151,78);"/>
    <path d="M540,0C838.034,0 1080,241.966 1080,540C1080,838.034 838.034,1080 540,1080C241.966,1080 0,838.034 0,540C0,241.966 241.966,0 540,0ZM540,106.996C778.981,106.996 973.004,301.019 973.004,540C973.004,778.981 778.981,973.004 540,973.004C301.019,973.004 106.996,778.981 106.996,540C106.996,301.019 301.019,106.996 540,106.996Z" style="fill:white;"/>
    <path d="M540,0C838.034,0 1080,241.966 1080,540C1080,838.034 838.034,1080 540,1080C241.966,1080 0,838.034 0,540C0,241.966 241.966,0 540,0ZM540,70.782C798.969,70.782 1009.22,281.031 1009.22,540C1009.22,798.969 798.969,1009.22 540,1009.22C281.031,1009.22 70.782,798.969 70.782,540C70.782,281.031 281.031,70.782 540,70.782Z" style="fill:rgb(82,51,67);"/>
    <g transform="matrix(1.06629,0,0,1.06629,-26.5052,-29.8257)">
        <path d="M523.429,197.958L621.956,191.287C618.967,411.417 601.595,570.02 623.614,714.771L523.429,732.056C512.011,686.88 520.569,491.1 523.429,197.958Z" style="fill:rgb(82,51,67);"/>
    </g>
    <g transform="matrix(935.518,0,0,935.518,313.311,683.602)">
        <path d="M0.504,-0.255C0.504,-0.417 0.423,-0.493 0.322,-0.493C0.255,-0.493 0.208,-0.456 0.174,-0.417L0.163,-0.483L0.061,-0.483L0.061,0.186L0.181,0.168L0.181,-0.014C0.21,-0.003 0.247,0.005 0.293,0.005C0.404,0.005 0.504,-0.075 0.504,-0.255ZM0.383,-0.248C0.383,-0.142 0.336,-0.091 0.274,-0.091C0.233,-0.091 0.21,-0.098 0.181,-0.112L0.181,-0.319C0.213,-0.36 0.247,-0.387 0.29,-0.387C0.344,-0.387 0.383,-0.341 0.383,-0.248Z" style="fill:white;fill-rule:nonzero;stroke:rgb(82,51,67);stroke-width:0.01px;"/>
    </g>
    <g transform="matrix(1,0,0,1,11.2577,0.790483)">
        <path d="M530.514,190.872L614.548,186.054C611.558,406.184 592.529,580.338 614.548,725.09L530.514,737.623C519.096,692.447 527.654,484.015 530.514,190.872Z" style="fill:white;"/>
    </g>
</svg>
